<svg width="30" height="30" viewBox="0 0 40 40" fill="none" xmlns="http://www.w3.org/2000/svg">
<g clip-path="url(#clip0_11_312)">
<path d="M20 39.375C30.7005 39.375 39.375 30.7005 39.375 20C39.375 9.29948 30.7005 0.624992 20 0.624992C9.29946 0.624992 0.624969 9.29948 0.624969 20C0.624969 30.7005 9.29946 39.375 20 39.375Z" fill="#EA4C89"/>
<path fill-rule="evenodd" clip-rule="evenodd" d="M20 0C8.95876 0 -3.05176e-05 8.95879 -3.05176e-05 20C-3.05176e-05 31.0413 8.95876 40 20 40C31.0195 40 40 31.0413 40 20C40 8.95879 31.0195 0 20 0ZM33.2104 9.21909C35.5965 12.1258 37.0282 15.8351 37.0716 19.8481C36.5076 19.7398 30.8676 18.59 25.1844 19.3059C25.0542 19.0239 24.9457 18.7201 24.8156 18.4165C24.4685 17.5923 24.0781 16.7463 23.6876 15.9436C29.9782 13.384 32.8416 9.69632 33.2104 9.21909ZM20 2.95011C24.3384 2.95011 28.308 4.57701 31.3232 7.24513C31.0195 7.67897 28.4381 11.128 22.3644 13.4056C19.5661 8.26464 16.4642 4.0564 15.987 3.40564C17.2667 3.10195 18.6117 2.95011 20 2.95011ZM12.7332 4.55531C13.1887 5.16269 16.2256 9.39263 19.0672 14.4251C11.0846 16.551 4.03468 16.5076 3.27546 16.5076C4.38175 11.2148 7.96092 6.81128 12.7332 4.55531ZM2.9067 20.0218C2.9067 19.8481 2.9067 19.6746 2.9067 19.5011C3.64422 19.5228 11.9306 19.6313 20.4555 17.0716C20.9545 18.026 21.41 19.0021 21.8439 19.9783C21.6269 20.0434 21.3882 20.1085 21.1714 20.1735C12.3644 23.0151 7.67894 30.7809 7.28847 31.4316C4.57697 28.4165 2.9067 24.4035 2.9067 20.0218ZM20 37.0933C16.052 37.0933 12.4078 35.7484 9.52275 33.4924C9.82644 32.8634 13.2971 26.1823 22.9284 22.82C22.9717 22.7983 22.9935 22.7983 23.0369 22.7766C25.4446 29.0021 26.4209 34.2299 26.6811 35.7266C24.6204 36.616 22.3644 37.0933 20 37.0933ZM29.5227 34.1649C29.3492 33.1236 28.4381 28.1345 26.2039 21.9956C31.5619 21.1496 36.2472 22.538 36.833 22.7333C36.0955 27.4838 33.3622 31.5835 29.5227 34.1649Z" fill="#C32361"/>
</g>
<defs>
<clipPath id="clip0_11_312">
<rect width="40" height="40" fill="white"/>
</clipPath>
</defs>
</svg>
