<svg width="40" height="40" viewBox="0 0 40 40" fill="none" xmlns="http://www.w3.org/2000/svg">
<g clip-path="url(#clip0_11_373)">
<path d="M13.6669 40C17.3469 40 20.3336 37.0133 20.3336 33.3333V26.6666H13.6669C9.98683 26.6666 7.00009 29.6533 7.00009 33.3333C7.00009 37.0133 9.98683 40 13.6669 40Z" fill="#0ACF83"/>
<path d="M7.00009 20C7.00009 16.32 9.98683 13.3332 13.6669 13.3332H20.3336V26.6665H13.6669C9.98683 26.6667 7.00009 23.68 7.00009 20Z" fill="#A259FF"/>
<path d="M7.00009 6.66672C7.00009 2.98672 9.98683 0 13.6669 0H20.3336V13.3333H13.6669C9.98683 13.3333 7.00009 10.3467 7.00009 6.66672Z" fill="#F24E1E"/>
<path d="M20.3332 0H27C30.68 0 33.6668 2.98672 33.6668 6.66672C33.6668 10.3467 30.68 13.3333 27 13.3333H20.3332V0Z" fill="#FF7262"/>
<path d="M33.6668 20C33.6668 23.68 30.68 26.6667 27 26.6667C23.32 26.6667 20.3332 23.68 20.3332 20C20.3332 16.32 23.32 13.3332 27 13.3332C30.68 13.3332 33.6668 16.32 33.6668 20Z" fill="#1ABCFE"/>
</g>
<defs>
<clipPath id="clip0_11_373">
<rect width="40" height="40" fill="white"/>
</clipPath>
</defs>
</svg>
