<svg width="20" height="20" viewBox="0 0 40 40" fill="none" xmlns="http://www.w3.org/2000/svg">
<g clip-path="url(#clip0_5_304)">
<path d="M20 3.6046C25.3434 3.6046 25.9706 3.62842 28.0826 3.7237C30.0358 3.81104 31.0917 4.13656 31.7984 4.41445C32.7352 4.77967 33.4022 5.20842 34.1009 5.90711C34.7995 6.6058 35.2362 7.27273 35.5935 8.20961C35.8635 8.91624 36.1969 9.97221 36.2843 11.9254C36.3795 14.0373 36.4034 14.6645 36.4034 20.0079C36.4034 25.3513 36.3795 25.9786 36.2843 28.0905C36.1969 30.0437 35.8714 31.0996 35.5935 31.8063C35.2283 32.7432 34.7995 33.4101 34.1009 34.1088C33.4022 34.8075 32.7352 35.2441 31.7984 35.6014C31.0917 35.8714 30.0358 36.2048 28.0826 36.2922C25.9706 36.3875 25.3434 36.4113 20 36.4113C14.6566 36.4113 14.0294 36.3875 11.9174 36.2922C9.96428 36.2048 8.9083 35.8793 8.20167 35.6014C7.26479 35.2362 6.59786 34.8075 5.89917 34.1088C5.20048 33.4101 4.7638 32.7432 4.40651 31.8063C4.13657 31.0996 3.8031 30.0437 3.71576 28.0905C3.62049 25.9786 3.59667 25.3513 3.59667 20.0079C3.59667 14.6645 3.62049 14.0373 3.71576 11.9254C3.8031 9.97221 4.12863 8.91624 4.40651 8.20961C4.77174 7.27273 5.20048 6.6058 5.89917 5.90711C6.59786 5.20842 7.26479 4.77173 8.20167 4.41445C8.9083 4.1445 9.96428 3.81104 11.9174 3.7237C14.0294 3.62048 14.6646 3.6046 20 3.6046ZM20 0C14.5693 0 13.8865 0.023819 11.7507 0.119095C9.62287 0.214371 8.16991 0.555776 6.89957 1.04803C5.58158 1.55617 4.47003 2.24692 3.35848 3.35848C2.24692 4.47003 1.56411 5.58952 1.04804 6.89956C0.555776 8.16991 0.214371 9.62287 0.119095 11.7586C0.023819 13.8865 0 14.5693 0 20C0 25.4307 0.023819 26.1135 0.119095 28.2493C0.214371 30.3771 0.555776 31.8301 1.04804 33.1084C1.55617 34.4264 2.24692 35.5379 3.35848 36.6495C4.47003 37.761 5.58952 38.4438 6.89957 38.9599C8.16991 39.4522 9.62287 39.7936 11.7586 39.8888C13.8944 39.9841 14.5693 40.0079 20.008 40.0079C25.4466 40.0079 26.1215 39.9841 28.2573 39.8888C30.3851 39.7936 31.8381 39.4522 33.1163 38.9599C34.4343 38.4518 35.5459 37.761 36.6574 36.6495C37.769 35.5379 38.4518 34.4184 38.9679 33.1084C39.4601 31.838 39.8015 30.3851 39.8968 28.2493C39.9921 26.1135 40.0159 25.4387 40.0159 20C40.0159 14.5613 39.9921 13.8865 39.8968 11.7507C39.8015 9.62287 39.4601 8.16991 38.9679 6.89162C38.4597 5.57364 37.769 4.46209 36.6574 3.35054C35.5459 2.23898 34.4264 1.55617 33.1163 1.0401C31.846 0.547836 30.393 0.206431 28.2573 0.111155C26.1136 0.023819 25.4307 0 20 0Z" fill="black"/>
<path d="M20 9.73402C14.3311 9.73402 9.72607 14.3311 9.72607 20.0079C9.72607 25.6848 14.3231 30.2818 20 30.2818C25.6768 30.2818 30.2739 25.6848 30.2739 20.0079C30.2739 14.3311 25.6768 9.73402 20 9.73402ZM20 26.6693C16.316 26.6693 13.3307 23.684 13.3307 20C13.3307 16.316 16.316 13.3307 20 13.3307C23.684 13.3307 26.6693 16.316 26.6693 20C26.6693 23.684 23.684 26.6693 20 26.6693Z" fill="black"/>
<path d="M30.6788 11.7189C32.0031 11.7189 33.0766 10.6454 33.0766 9.32116C33.0766 7.9969 32.0031 6.92338 30.6788 6.92338C29.3546 6.92338 28.2811 7.9969 28.2811 9.32116C28.2811 10.6454 29.3546 11.7189 30.6788 11.7189Z" fill="black"/>
</g>
<defs>
<clipPath id="clip0_5_304">
<rect width="40" height="40" fill="white"/>
</clipPath>
</defs>
</svg>
