<svg width="20" height="20" viewBox="0 0 40 40" fill="none" xmlns="http://www.w3.org/2000/svg">
<path d="M22.5624 20.3795C22.5624 26.664 17.5116 31.7586 11.2814 31.7586C5.05121 31.7586 0 26.6629 0 20.3795C0 14.0961 5.05083 9 11.2814 9C17.5119 9 22.5624 14.095 22.5624 20.3795Z" fill="black"/>
<path d="M34.938 20.3795C34.938 26.295 32.4126 31.0924 29.2973 31.0924C26.182 31.0924 23.6566 26.295 23.6566 20.3795C23.6566 14.464 26.1816 9.66657 29.2969 9.66657C32.4122 9.66657 34.9376 14.4624 34.9376 20.3795" fill="black"/>
<path d="M40 20.3795C40 25.6784 39.1119 29.9766 38.0161 29.9766C36.9203 29.9766 36.0327 25.6795 36.0327 20.3795C36.0327 15.0795 36.9207 10.7824 38.0161 10.7824C39.1115 10.7824 40 15.0791 40 20.3795Z" fill="black"/>
</svg>
